<svg xmlns="http://www.w3.org/2000/svg" xmlns:xlink="http://www.w3.org/1999/xlink">
    <symbol id="anti-cafe" viewBox="0 0 20 20">        
        <path d="M10 4.99996V9.99996L13.3334 11.6666M18.3334 9.99996C18.3334 14.6023 14.6024 18.3333 10 18.3333C5.39765 18.3333 1.66669 14.6023 1.66669 9.99996C1.66669 5.39759 5.39765 1.66663 10 1.66663C14.6024 1.66663 18.3334 5.39759 18.3334 9.99996Z" stroke="white" stroke-linecap="round" stroke-linejoin="round"/>
    </symbol>
    <symbol id="bakery" viewBox="0 0 20 20">
        <path d="M8.75002 7.91663L7.91669 6.00829C7.66669 5.39996 7.33335 4.99996 6.66669 4.99996M6.66669 4.99996H3.75002C2.32502 4.99996 1.66669 5.41663 1.66669 7.08329C1.73656 8.57811 2.32602 10.0017 3.33335 11.1083M6.66669 4.99996C6.66669 3.70829 6.86669 1.66663 5.00002 1.66663C3.33335 1.66663 2.91669 3.47496 2.91669 4.99996M12.0834 11.25L13.9917 12.0833C14.6 12.3333 15 12.6666 15 13.3333M15 13.3333V16.25C15 17.675 14.5834 18.3333 12.9167 18.3333C11.4219 18.2634 9.99832 17.674 8.89169 16.6666M15 13.3333C16.2917 13.3333 18.3334 13.1333 18.3334 15C18.3334 16.6666 16.525 17.0833 15 17.0833M3.83335 10.925L8.65835 8.24996C10.2334 7.37496 12.65 9.73329 11.75 11.3416L9.06669 16.1833C7.33335 19.3 0.658354 12.6916 3.83335 10.925Z" stroke="white" stroke-linecap="round" stroke-linejoin="round"/>
    </symbol>
    <symbol id="bar" viewBox="0 0 20 20">
        <path d="M14.1667 9.16663H15C15.663 9.16663 16.2989 9.43002 16.7678 9.89886C17.2366 10.3677 17.5 11.0036 17.5 11.6666C17.5 12.3297 17.2366 12.9656 16.7678 13.4344C16.2989 13.9032 15.663 14.1666 15 14.1666H14.1667M7.5 9.99996V15M10.8333 9.99996V15M4.16667 6.66663V16.6666C4.16667 17.1087 4.34226 17.5326 4.65482 17.8451C4.96738 18.1577 5.39131 18.3333 5.83333 18.3333H12.5C12.942 18.3333 13.366 18.1577 13.6785 17.8451C13.9911 17.5326 14.1667 17.1087 14.1667 16.6666V6.66663M11.6667 6.24996C10.8333 6.24996 10.4667 6.66663 9.16667 6.66663C7.86667 6.66663 7.5 6.24996 6.66667 6.24996C5.83333 6.24996 5.23333 6.66663 4.58333 6.66663C4.0308 6.66663 3.50089 6.44713 3.11019 6.05643C2.71949 5.66573 2.5 5.13583 2.5 4.58329C2.5 4.03076 2.71949 3.50085 3.11019 3.11015C3.50089 2.71945 4.0308 2.49996 4.58333 2.49996C5.23333 2.49996 5.89167 2.91663 6.66667 2.91663C7.44167 2.91663 7.86667 1.66663 9.16667 1.66663C10.4667 1.66663 10.8333 2.91663 11.6667 2.91663C12.5 2.91663 13.1 2.49996 13.75 2.49996C14.3025 2.49996 14.8324 2.71945 15.2231 3.11015C15.6138 3.50085 15.8333 4.03076 15.8333 4.58329C15.8333 5.13583 15.6138 5.66573 15.2231 6.05643C14.8324 6.44713 14.3025 6.66663 13.75 6.66663C13.1 6.66663 12.5 6.24996 11.6667 6.24996Z" stroke="white"  stroke-linecap="round" stroke-linejoin="round" />
    </symbol>
    <symbol id="cafe" viewBox="19 20">
        <path d="M7.99999 2.66663C4.08332 3.33329 1.16666 6.74996 1.16666 10.8333C1.16666 11.2753 1.34225 11.6992 1.65481 12.0118C1.96737 12.3244 2.3913 12.5 2.83332 12.5C3.27535 12.5 3.69927 12.3244 4.01183 12.0118C4.3244 11.6992 4.49999 11.2753 4.49999 10.8333V9.99996C4.49999 9.55793 4.67558 9.13401 4.98815 8.82145C5.30071 8.50889 5.72463 8.33329 6.16666 8.33329C6.60868 8.33329 7.03261 8.50889 7.34517 8.82145C7.65773 9.13401 7.83332 9.55793 7.83332 9.99996V13.3333C7.83332 13.7753 8.00892 14.1992 8.32148 14.5118C8.63404 14.8244 9.05796 15 9.49999 15C9.94202 15 10.3659 14.8244 10.6785 14.5118C10.9911 14.1992 11.1667 13.7753 11.1667 13.3333V9.99996C11.1667 9.55793 11.3423 9.13401 11.6548 8.82145C11.9674 8.50889 12.3913 8.33329 12.8333 8.33329C13.2754 8.33329 13.6993 8.50889 14.0118 8.82145C14.3244 9.13401 14.5 9.55793 14.5 9.99996V10.8333C14.5 11.2753 14.6756 11.6992 14.9881 12.0118C15.3007 12.3244 15.7246 12.5 16.1667 12.5C16.6087 12.5 17.0326 12.3244 17.3452 12.0118C17.6577 11.6992 17.8333 11.2753 17.8333 10.8333C17.8333 6.74996 14.9167 3.33329 11 2.66663M2.16666 12.3333C2.52641 14.0112 3.45069 15.515 4.78525 16.5937C6.11982 17.6725 7.78395 18.261 9.49999 18.261C11.216 18.261 12.8802 17.6725 14.2147 16.5937C15.5493 15.515 16.4736 14.0112 16.8333 12.3333M11.1667 3.33329C11.1667 4.25377 10.4205 4.99996 9.49999 4.99996C8.57952 4.99996 7.83332 4.25377 7.83332 3.33329C7.83332 2.41282 8.57952 1.66663 9.49999 1.66663C10.4205 1.66663 11.1667 2.41282 11.1667 3.33329Z" stroke="white" stroke-linecap="round" stroke-linejoin="round"/>
    </symbol>
    <symbol id="hotel" viewBox="0 0 19 16">
        <path d="M1.16666 14.6667V8.00004C1.16666 7.55801 1.34226 7.13409 1.65482 6.82153C1.96738 6.50897 2.3913 6.33337 2.83333 6.33337M2.83333 6.33337H16.1667M2.83333 6.33337V3.00004C2.83333 2.55801 3.00893 2.13409 3.32149 1.82153C3.63405 1.50897 4.05797 1.33337 4.5 1.33337H14.5C14.942 1.33337 15.3659 1.50897 15.6785 1.82153C15.9911 2.13409 16.1667 2.55801 16.1667 3.00004V6.33337M16.1667 6.33337C16.6087 6.33337 17.0326 6.50897 17.3452 6.82153C17.6577 7.13409 17.8333 7.55801 17.8333 8.00004V14.6667M9.5 1.33337V6.33337M1.16666 13H17.8333" stroke="white" stroke-linecap="round" stroke-linejoin="round"/>
    </symbol>
    <symbol id="pizza" viewBox="0 0 20 20">
        <path d="M12.5 9.16663H12.5083M9.16667 12.5H9.175M13.3333 13.3333H13.3417M4.75833 14.2583C5.4346 12.0137 6.65608 9.97137 8.31375 8.3137C9.97141 6.65604 12.0137 5.43456 14.2583 4.75829M1.66667 13.3333L18.3333 18.3333L13.3333 1.66663C10.5434 2.43153 8.00063 3.90945 5.95506 5.95502C3.90949 8.00059 2.43157 10.5434 1.66667 13.3333Z" stroke="white" stroke-linecap="round" stroke-linejoin="round"/>
    </symbol>
    <symbol id="restaurant" viewBox="0 0 18 18">
        <path d="M4 13.1666H14M13.1667 16.5C13.3877 16.5 13.5996 16.4122 13.7559 16.2559C13.9122 16.0996 14 15.8876 14 15.6666V11.2083C14 10.8275 14.2633 10.505 14.6058 10.3408C15.315 10.0025 15.8818 9.42459 16.2064 8.70904C16.5309 7.99348 16.5922 7.1863 16.3795 6.42993C16.1668 5.67356 15.6938 5.01663 15.0439 4.57508C14.394 4.13353 13.609 3.93575 12.8275 4.01663C12.5056 3.26847 11.9716 2.63104 11.2913 2.18316C10.6111 1.73528 9.81446 1.49658 9 1.49658C8.18554 1.49658 7.38894 1.73528 6.70869 2.18316C6.02844 2.63104 5.49436 3.26847 5.1725 4.01663C4.39132 3.93631 3.60686 4.13438 2.95744 4.57591C2.30802 5.01744 1.83534 5.67408 1.62274 6.43005C1.41013 7.18602 1.47126 7.99278 1.79534 8.70809C2.11942 9.4234 2.68564 10.0013 3.39417 10.34C3.73667 10.505 4 10.8275 4 11.2075V15.6666C4 15.8876 4.0878 16.0996 4.24408 16.2559C4.40036 16.4122 4.61232 16.5 4.83333 16.5H13.1667Z" stroke="white" stroke-linecap="round" stroke-linejoin="round"/>
    </symbol>
</svg>